<?xml version="1.0" encoding="utf-8"?>
<!-- Generator: Adobe Illustrator 22.1.0, SVG Export Plug-In . SVG Version: 6.00 Build 0)  -->
<svg version="1.1" xmlns="http://www.w3.org/2000/svg" xmlns:xlink="http://www.w3.org/1999/xlink" x="0px" y="0px"
	 viewBox="0 0 252 216" style="enable-background:new 0 0 252 216;" xml:space="preserve">
<style type="text/css">
	.st0{display:none;}
	.st1{display:inline;fill:#00AEEF;}
	.st2{display:inline;}
	.st3{fill:#00AEEF;}
	.st4{fill:none;stroke:#231F20;stroke-width:4;stroke-miterlimit:10;}
	.st5{fill:none;stroke:#231F20;stroke-width:4;stroke-miterlimit:10;stroke-dasharray:11.5965,11.5965;}
	.st6{fill:none;stroke:#231F20;stroke-width:4;stroke-miterlimit:10;stroke-dasharray:12.3333,12.3333;}
	.st7{fill:none;stroke:#231F20;stroke-width:4;stroke-miterlimit:10;stroke-dasharray:11.6292,11.6292;}
</style>
<g id="Layer_1" class="st0">
	<path class="st1" d="M239,42"/>
	<path class="st1" d="M35.7,37.7"/>
	<path class="st1" d="M120.7,93.7"/>
	<g class="st2">
		<g>
			<g>
				<path class="st3" d="M141,156c-6.2,0-12.1-2.4-16.5-6.9c-4.4-4.4-6.8-10.3-6.8-16.5l0.2-89.3c0-3.2-1.2-6.3-3.5-8.5
					c-2.3-2.3-5.3-3.5-8.5-3.5H27.2v-6h219.2v6h-127c3,3.3,4.6,7.6,4.6,12.1l-0.2,89.3c0,4.6,1.8,9,5.1,12.3s7.6,5.1,12.3,5.1h102v6
					H141V156z"/>
				<path class="st3" d="M245.5,26.2v4H116.9c0.4,0.3,0.7,0.7,1.1,1c3.2,3.2,5,7.5,5,12.1l-0.2,89.3c0,4.9,1.9,9.5,5.3,13
					c3.5,3.5,8.1,5.4,13,5.4h101v4H141c-6,0-11.6-2.3-15.8-6.6c-4.2-4.2-6.5-9.8-6.5-15.8l0.2-89.3c0-3.5-1.3-6.8-3.8-9.2
					c-2.5-2.5-5.7-3.8-9.2-3.8H28.2v-4L245.5,26.2 M247.5,24.2h-2H28.2h-2v2v4v2h2h77.7c3,0,5.7,1.2,7.8,3.2
					c2.1,2.1,3.2,4.9,3.2,7.8l-0.2,89.3c0,6.5,2.5,12.6,7.1,17.2c4.6,4.6,10.7,7.1,17.2,7.1h101h2v-2v-4v-2h-2H141
					c-4.4,0-8.5-1.7-11.6-4.8c-3.1-3.1-4.8-7.2-4.8-11.6l0.2-89.3c0-4-1.2-7.9-3.5-11.1h124.1h2v-2v-4v-1.8H247.5z"/>
			</g>
		</g>
	</g>
	<path class="st1" d="M120.7,93.7"/>
	<g class="st2">
		<g>
			<path class="st3" d="M139.7,96.7c-12.1,0-21.9-9.8-21.9-21.9V71h6v3.7c0,8.8,7.2,15.9,15.9,15.9H247v6L139.7,96.7L139.7,96.7z"/>
			<path class="st3" d="M122.8,72v2.7c0,9.3,7.6,16.9,16.9,16.9H246v4H139.7c-11.5,0-20.9-9.4-20.9-20.9V72H122.8 M124.8,70h-2h-4
				h-2v2v2.7c0,12.6,10.3,22.9,22.9,22.9H246h2v-2v-4v-2h-2H139.7c-8.2,0-14.9-6.7-14.9-14.9V72L124.8,70L124.8,70z"/>
		</g>
	</g>
	<rect x="118.9" y="64.6" class="st1" width="4" height="27.8"/>
</g>
<g id="Layer_2">
	<path class="st3" d="M26,28.3"/>
	<g>
		<g>
			<line class="st4" x1="242.7" y1="152.7" x2="236.7" y2="152.7"/>
			<path class="st5" d="M225.1,152.7h-82.3c-13.5,0-24.5-11-24.5-24.5V91.3V53V40.9c0-6.9-5.6-12.5-12.5-12.5h-68"/>
			<polyline class="st4" points="32,28.3 26,28.3 32,28.3 			"/>
			<line class="st6" x1="44.3" y1="28.4" x2="235.5" y2="28.6"/>
			<line class="st4" x1="241.7" y1="28.7" x2="247.7" y2="28.7"/>
		</g>
	</g>
	<g>
		<g>
			<line class="st4" x1="247" y1="101.3" x2="241" y2="101.3"/>
			<path class="st7" d="M229.4,101.3h-89.1c-11.8,0-21.3-9.5-21.3-21.3V68.8"/>
			<line class="st4" x1="119" y1="63" x2="119" y2="57"/>
		</g>
	</g>
</g>
</svg>
