<?xml version="1.0" encoding="utf-8"?>
<!-- Generator: Adobe Illustrator 22.1.0, SVG Export Plug-In . SVG Version: 6.00 Build 0)  -->
<svg version="1.1" id="Layer_1" xmlns="http://www.w3.org/2000/svg" xmlns:xlink="http://www.w3.org/1999/xlink" x="0px" y="0px"
	 viewBox="0 0 252 216" style="enable-background:new 0 0 252 216;" xml:space="preserve">
<style type="text/css">
	.st0{fill:#ED1C24;stroke:#000000;stroke-width:4;stroke-miterlimit:10;}
	.st1{fill:none;stroke:#000000;stroke-width:4;stroke-miterlimit:10;}
	.st2{fill:#FFFFFF;}
</style>
<path class="st0" d="M35.2,42"/>
<path class="st0" d="M238.5,37.7"/>
<path class="st1" d="M153.5,93.7"/>
<g>
	<g>
		<g>
			<path class="st2" d="M133.2,156.1H31v-6h102c4.7,0,9-1.8,12.3-5.1s5.1-7.7,5.1-12.3l-0.2-89.3c0-4.5,1.6-8.8,4.6-12.1h-127v-6
				H247v6h-78.7c-3.2,0-6.2,1.2-8.5,3.5c-2.3,2.2-3.5,5.3-3.5,8.5l0.2,89.3c0,6.2-2.4,12.1-6.8,16.5c-4.4,4.5-10.3,6.9-16.5,6.9
				V156.1z"/>
			<path d="M28.7,26.3H246v4h-77.7c-3.5,0-6.7,1.3-9.2,3.8c-2.5,2.4-3.8,5.7-3.8,9.2l0.2,89.3c0,6-2.3,11.6-6.5,15.8
				c-4.2,4.3-9.8,6.6-15.8,6.6H32.1v-4h101c4.9,0,9.5-1.9,13-5.4c3.4-3.5,5.3-8.1,5.3-13l-0.2-89.3c0-4.6,1.8-8.9,5-12.1
				c0.4-0.3,0.7-0.7,1.1-1H28.7V26.3 M26.8,24.2V26v4v2h2h124.1c-2.3,3.2-3.5,7.1-3.5,11.1l0.2,89.3c0,4.4-1.7,8.5-4.8,11.6
				s-7.2,4.8-11.6,4.8h-101h-2v2v4v2h2h101c6.5,0,12.6-2.5,17.2-7.1c4.6-4.6,7.1-10.7,7.1-17.2l-0.2-89.3c0-2.9,1.1-5.7,3.2-7.8
				c2.1-2,4.8-3.2,7.8-3.2H246h2v-2v-4v-2h-2H28.7h-2H26.8z"/>
		</g>
	</g>
</g>
<path class="st1" d="M153.5,93.7"/>
<g>
	<g>
		<path class="st2" d="M134.5,96.6H27.2v-6h107.3c8.7,0,15.9-7.1,15.9-15.9V71h6v3.8C156.4,86.9,146.6,96.7,134.5,96.6L134.5,96.6z"
			/>
		<path d="M151.4,72h4v2.7c0,11.5-9.4,20.9-20.9,20.9H28.2v-4h106.3c9.3,0,16.9-7.6,16.9-16.9V72 M149.4,70v2v2.7
			c0,8.2-6.7,14.9-14.9,14.9H28.2h-2v2v4v2h2h106.3c12.6,0,22.9-10.3,22.9-22.9V72v-2h-2h-4H149.4L149.4,70z"/>
	</g>
</g>
<rect x="151.3" y="64.6" class="st2" width="4" height="27.8"/>
</svg>
